<svg class="icon" viewBox="0 0 1024 1024" version="1.1" xmlns="http://www.w3.org/2000/svg" width="200" height="200"><path d="M298.666667 298.666667H85.333333V85.333333h213.333334v213.333334z m-170.666667-42.666667h128V128H128v128zM298.666667 597.333333H85.333333V384h213.333334v213.333333z m-170.666667-42.666666h128v-128H128v128zM298.666667 896H85.333333V682.666667h213.333334v213.333333z m-170.666667-42.666667h128v-128H128v128zM384 170.666667h554.666667v42.666666H384zM384 469.333333h298.666667v42.666667H384zM384 768h341.333333v42.666667H384zM793.6 810.666667V552.533333l-70.4 70.4-29.866667-32 121.6-121.6 123.733334 121.6-29.866667 32-70.4-70.4V810.666667z" fill="#707070"></path></svg>
