<svg class="icon" viewBox="0 0 1024 1024" version="1.1" xmlns="http://www.w3.org/2000/svg" width="200" height="200"><path d="M571.221095 981.332924H213.333244a85.333298 85.333298 0 0 1-85.333297-85.333297V255.999893a85.333298 85.333298 0 0 1 85.333297-85.333297h170.666596a127.999947 127.999947 0 0 1 127.999947-127.999947 127.999947 127.999947 0 0 1 127.999946 127.999947h170.666596a85.333298 85.333298 0 0 1 85.333298 85.333297v224.127907A298.197209 298.197209 0 0 1 1023.999573 725.333031a298.666542 298.666542 0 0 1-298.666542 298.666542 297.514543 297.514543 0 0 1-154.111936-42.666649z m-52.821311-255.999893A206.847914 206.847914 0 0 0 725.333031 932.266278 206.847914 206.847914 0 0 0 932.266278 725.333031a207.103914 207.103914 0 0 0-206.89058-206.933247A206.847914 206.847914 0 0 0 518.399784 725.333031zM213.333244 277.333218v597.333084a21.333324 21.333324 0 0 0 21.333325 21.333325h245.418564A297.471876 297.471876 0 0 1 426.666489 725.333031a298.666542 298.666542 0 0 1 298.666542-298.666542 299.306542 299.306542 0 0 1 85.333298 12.330661V277.333218a21.333324 21.333324 0 0 0-19.498659-21.333325h103.722624H725.333031v85.333298H298.666542V255.999893H232.789236A21.631991 21.631991 0 0 0 213.333244 277.333218zM469.333138 170.666596a42.666649 42.666649 0 0 0 42.666649 42.666648 42.666649 42.666649 0 0 0 42.666649-42.666648 42.666649 42.666649 0 0 0-42.666649-42.666649 42.666649 42.666649 0 0 0-42.666649 42.666649z m255.999893 618.666408a42.666649 42.666649 0 0 1-42.666649-42.666648v-127.999947a42.666649 42.666649 0 0 1 42.666649-42.666649 42.666649 42.666649 0 0 1 42.666649 42.666649v85.333298h63.999973a42.666649 42.666649 0 0 1 42.666649 42.666649 42.666649 42.666649 0 0 1-42.666649 42.666648z" fill="#707070"></path></svg>
