<svg class="icon" viewBox="0 0 1024 1024" version="1.1" xmlns="http://www.w3.org/2000/svg" width="200" height="200"><path d="M934.7072 35.9936c0-19.8656-15.1552-35.9936-33.792-35.9936H122.88c-18.6368 0-33.792 16.128-33.792 35.9936l0.0512 2.304-0.1024 2.2528v319.0784c0 19.8656 15.2064 35.9936 33.8432 35.9936 18.688 0 33.8944-16.128 33.8944-35.9936v-287.744h321.3824V347.648c0 19.8656 15.1552 35.9936 33.8432 35.9936 18.688 0 33.8432-16.128 33.8432-35.9936V71.8848h321.3824v287.744c0 19.8656 15.2064 35.9936 33.8944 35.9936 18.6368 0 33.792-16.128 33.792-35.9936V40.5504L934.912 38.2976c-0.1536-0.7168-0.1536-1.536-0.1536-2.304z" fill="#707070"></path><path d="M170.5984 349.0816h-102.4C30.5152 349.0816 0 380.8256 0 420.096v532.8896C0 992.256 30.5152 1024 68.1984 1024h102.4c37.7344 0 68.2496-31.744 68.2496-71.0144V420.096c0-39.1168-30.5152-71.0144-68.2496-71.0144z m0 603.904h-102.4V420.096h102.4v532.8896zM563.2 349.0816h-102.4c-37.7344 0-68.1984 31.744-68.1984 71.0144v532.8896c0 39.2704 30.464 71.0144 68.1984 71.0144h102.4c37.6832 0 68.1984-31.744 68.1984-71.0144V420.096c0.1024-39.1168-30.5152-71.0144-68.1984-71.0144z m0 603.904h-102.4V420.096h102.4v532.8896z m392.6528-603.904h-102.4c-37.7344 0-68.2496 31.744-68.2496 71.0144v532.8896c0 39.2704 30.5152 71.0144 68.2496 71.0144h102.4c37.6832 0 68.1984-31.744 68.1984-71.0144V420.096c0-39.1168-30.5152-71.0144-68.1984-71.0144z m0 603.904h-102.4V420.096h102.4v532.8896z" fill="#707070"></path></svg>
