<svg class="icon" viewBox="0 0 1024 1024" version="1.1" xmlns="http://www.w3.org/2000/svg" width="200" height="200"><path d="M608.704 800h128a64 64 0 0 1 64 64h-256a64 64 0 0 1 64-64z m-190.912-268.928c14.88 24.832 23.136 49.152 23.136 76.928 0 88.704-50.144 121.6-161.6 153.536l-23.872 6.784c-8.992 2.592-16.192 4.704-23.04 6.848-31.264 9.728-53.344 19.072-70.592 30.528-31.392 20.768-51.232 49.856-60.928 90.304h822.208c-9.6-40.384-29.44-69.44-61.024-90.24-17.056-11.232-38.56-20.448-68.448-29.92a964.8 964.8 0 0 0-23.968-7.2l-24.896-7.136c-110.144-31.84-160-64.992-160-153.472 0-27.52 8.032-51.744 22.592-76.48 4.736-8.032 9.792-15.584 16.896-25.6-3.648 5.152 12.256-17.12 15.712-22.144 22.912-33.344 32.704-59.52 32.704-99.744v-96c0-99.36-57.696-160-159.968-160-103.744 0-161.28 60.544-160 159.168v97.664c-0.512 40.128 9.184 65.952 32.544 99.392 3.456 4.96 18.752 26.016 15.552 21.536 7.136 9.888 12.224 17.376 16.992 25.312zM288.736 288c-1.664-128 78.496-224 224-224 143.84 0 223.968 95.744 223.968 224v96c0 128-87.936 160-87.936 224 0 96 151.328 80.32 248.512 144.32 45.44 29.92 74.784 72.864 88.096 128.896A64 64 0 0 1 923.104 960H100.896a64 64 0 0 1-62.24-78.912c13.408-55.936 42.688-98.88 87.84-128.736 96.64-64 250.432-48.32 250.432-144.32 0-64-89.856-96-88.224-224v-96z" fill="#707070"></path></svg>
