<svg class="icon" viewBox="0 0 1024 1024" version="1.1" xmlns="http://www.w3.org/2000/svg" width="300" height="300"><path d="M883.13 836.13h-21.16V470.27c0-15.7-8.43-30.18-22.06-37.95l-284.4-162.16V142.64c0-15.57-8.29-29.95-21.74-37.78-13.48-7.85-30.09-7.87-43.59-0.17L183.72 279.43a43.666 43.666 0 0 0-22.05 37.95v518.76H140.5c-24.12 0-43.68 19.56-43.68 43.68s19.56 43.68 43.68 43.68H883.14c24.12 0 43.68-19.56 43.68-43.68 0-24.13-19.56-43.69-43.69-43.69zM249.04 342.76l219.1-124.93V836.14h-219.1V342.76z m306.47 493.37V370.72l219.1 124.93v340.48h-219.1z" fill="#707070"></path></svg>
