<svg class="icon" viewBox="0 0 1024 1024" version="1.1" xmlns="http://www.w3.org/2000/svg" width="200" height="200"><path d="M882.752 256H736V192h256v256h-64V301.248l-153.376 153.376-45.248-45.248L882.752 256zM220.48 566.24L18.368 768.416l45.248 45.248 202.176-202.176z"></path><path d="M21.152 652.48l158.4 158.368 45.248-45.248-158.4-158.4zM234.176 611.072a272 272 0 1 1 384.64-384.64 272 272 0 0 1-384.64 384.64z m339.424-45.248A208 208 0 1 0 279.424 271.68a208 208 0 0 0 294.176 294.144z"></path><path d="M592 864a272 272 0 1 1 0-544 272 272 0 0 1 0 544z m0-64a208 208 0 1 0 0-416 208 208 0 0 0 0 416z"></path></svg>
