<svg class="icon" viewBox="0 0 1024 1024" version="1.1" xmlns="http://www.w3.org/2000/svg" width="200" height="200"><path d="M489.78 32.71c99 0 199.52 84 232.5 193.52 29.26 96.75-6.38 194-96.83 265.28-80.33 63.26-167.59 68.58-257.5 15.94-168.12-98.88-163.33-333.32 10.64-439.12 33-20.2 68.1-30.83 111.19-35.62 1.6 3.19-1.06-2.65 0 0z m-371.35 933c-1.07 0-2.13-0.53-3.2-0.53C38.09 948.7 34.37 942.85 58.31 870c16-49.44 30.86-98.88 48.41-147.26 27.67-77.61 87.26-117.49 166-121.21 92-4.78 184.61-2.12 277.18-1.06 31.93 0.53 37.25 11.16 24 40.4-3.2 7.44-7.45 14.36-11.71 21.27-53.73 86.65-71.29 179.15-46.82 279.63 10.11 41.47 2.13 48.91-39.9 50-21.28 0.54-42.56 0-63.84 0 0.53 0-202.71-15.94-293.15-26z m841.67-2.65V550.52l-58-38.81-210.69 94.1v72.83L574.91 719v243.52H563.2v28.71h38.31V735.52L756.33 685v306.23h105.88v-31.36h-24V680.76l-55.86-34-62.78 21.8v-46.27l152.16-67.52v436.46h106.99v-28.71H960.1v0.54zM619.6 801.44l111.73-36.15v-48.38L619.6 755.72v45.72z m0 62.73l111.73-23.92v-48.38L619.6 820.58v43.59z m0 64.86l111.73-14.35V866.3l-111.73 17z m0 62.73l111.73-2.65v-47.85L619.6 946v45.72z" fill="#707070"></path></svg>
