<svg class="icon" viewBox="0 0 1024 1024" version="1.1" xmlns="http://www.w3.org/2000/svg" width="200" height="200"><path d="M554.666667 583.125333a176.042667 176.042667 0 0 1 177.792 177.749334V832c0 21.333333-14.250667 35.541333-35.584 35.541333h-533.333334C142.208 867.541333 128 853.333333 128 832v-71.125333a176.042667 176.042667 0 0 1 177.792-177.749334H554.666667z m0 71.082667H305.792c-60.458667 0-106.666667 46.250667-106.666667 106.666667v35.584H661.333333v-35.584c0-60.416-46.208-106.666667-106.666666-106.666667z m416-309.333333a34.389333 34.389333 0 0 1 0 49.792l-64 64 64 64a34.389333 34.389333 0 0 1 0 49.792 32.298667 32.298667 0 0 1-24.874667 10.666666 32.298667 32.298667 0 0 1-24.917333-10.666666l-64-64-64 64a32.298667 32.298667 0 0 1-24.874667 10.666666 32.298667 32.298667 0 0 1-24.874667-10.666666 34.389333 34.389333 0 0 1 0-49.792l63.957334-64-64-64a34.389333 34.389333 0 0 1 0-49.792 34.389333 34.389333 0 0 1 49.792 0l64 64 64-64a34.389333 34.389333 0 0 1 49.792 0zM430.208 156.458667a176.042667 176.042667 0 0 1 177.792 177.749333A176.042667 176.042667 0 0 1 430.208 512a176.042667 176.042667 0 0 1-177.749333-177.792 176.042667 176.042667 0 0 1 177.749333-177.749333z m0 71.082666c-60.416 0-106.666667 46.250667-106.666667 106.666667 0 60.458667 46.250667 106.666667 106.666667 106.666667 60.458667 0 106.666667-46.208 106.666667-106.666667 0-60.416-46.208-106.666667-106.666667-106.666667z"></path></svg>
